<svg xmlns="http://www.w3.org/2000/svg" version="1.1" xmlns:xlink="http://www.w3.org/1999/xlink" xmlns:svgjs="http://svgjs.dev/svgjs" width="1440" height="560" preserveAspectRatio="none" viewBox="0 0 1440 560"><g mask="url(&quot;#SvgjsMask1000&quot;)" fill="none"><rect width="1440" height="560" x="0" y="0" fill="#0e2a47"></rect><path d="M -803.9226283293677,206 C -707.92,255.4 -515.92,474 -323.92262832936774,453 C -131.92,432 -35.92,129.6 156.07737167063226,101 C 348.08,72.4 444.08,289.6 636.0773716706323,310 C 828.08,330.4 955.29,188.8 1116.0773716706321,203 C 1276.86,217.2 1375.22,345.4 1440,381" stroke="rgba(51, 121, 194, 0.58)" stroke-width="2"></path><path d="M -313.6750821355401,404 C -217.68,337.2 -25.68,80.2 166.3249178644599,70 C 358.32,59.8 454.32,325.2 646.3249178644598,353 C 838.32,380.8 934.32,213.8 1126.3249178644598,209 C 1318.32,204.2 1543.59,330.4 1606.3249178644598,329 C 1669.06,327.6 1473.26,227.4 1440,202" stroke="rgba(51, 121, 194, 0.58)" stroke-width="2"></path><path d="M -431.68918872916805,327 C -335.69,290.8 -143.69,123.2 48.31081127083195,146 C 240.31,168.8 336.31,447.2 528.3108112708319,441 C 720.31,434.8 816.31,106.2 1008.3108112708319,115 C 1200.31,123.8 1401.97,482 1488.310811270832,485 C 1574.65,488 1449.66,201 1440,130" stroke="rgba(51, 121, 194, 0.58)" stroke-width="2"></path><path d="M -587.0729577849263,127 C -491.07,180.4 -299.07,378.6 -107.07295778492629,394 C 84.93,409.4 180.93,205.2 372.9270422150737,204 C 564.93,202.8 660.93,376.2 852.9270422150737,388 C 1044.93,399.8 1215.51,277.8 1332.9270422150737,263 C 1450.34,248.2 1418.59,303.8 1440,314" stroke="rgba(51, 121, 194, 0.58)" stroke-width="2"></path></g><defs><mask id="SvgjsMask1000"><rect width="1440" height="560" fill="#ffffff"></rect></mask></defs></svg>