<svg xmlns="http://www.w3.org/2000/svg" version="1.1" xmlns:xlink="http://www.w3.org/1999/xlink" xmlns:svgjs="http://svgjs.dev/svgjs" width="1440" height="700" preserveAspectRatio="none" viewBox="0 0 1440 700"><g mask="url(&quot;#SvgjsMask1161&quot;)" fill="none"><path d="M19.38 -44.68L84.33 -7.18L84.33 67.82L19.38 105.32L-45.57 67.82L-45.57 -7.18zM19.38 180.32L84.33 217.82L84.33 292.82L19.38 330.32L-45.57 292.82L-45.57 217.82zM19.38 405.32L84.33 442.82L84.33 517.82L19.38 555.32L-45.57 517.82L-45.57 442.82zM214.24 292.82L279.19 330.32L279.19 405.32L214.24 442.82L149.29 405.32L149.29 330.32zM149.29 630.32L214.24 667.82L214.24 742.82L149.29 780.32L84.33 742.82L84.33 667.82zM279.19 -44.68L344.15 -7.18L344.15 67.82L279.19 105.32L214.24 67.82L214.24 -7.18zM344.15 67.82L409.1 105.32L409.1 180.32L344.15 217.82L279.19 180.32L279.19 105.32zM474.06 292.82L539.01 330.32L539.01 405.32L474.06 442.82L409.1 405.32L409.1 330.32zM474.06 517.82L539.01 555.32L539.01 630.32L474.06 667.82L409.1 630.32L409.1 555.32zM409.1 630.32L474.06 667.82L474.06 742.82L409.1 780.32L344.15 742.82L344.15 667.82zM539.01 -44.68L603.96 -7.18L603.96 67.82L539.01 105.32L474.06 67.82L474.06 -7.18zM603.96 67.82L668.92 105.32L668.92 180.32L603.96 217.82L539.01 180.32L539.01 105.32zM603.96 292.82L668.92 330.32L668.92 405.32L603.96 442.82L539.01 405.32L539.01 330.32zM539.01 405.32L603.96 442.82L603.96 517.82L539.01 555.32L474.06 517.82L474.06 442.82zM539.01 630.32L603.96 667.82L603.96 742.82L539.01 780.32L474.06 742.82L474.06 667.82zM733.87 67.82L798.83 105.32L798.83 180.32L733.87 217.82L668.92 180.32L668.92 105.32zM668.92 180.32L733.87 217.82L733.87 292.82L668.92 330.32L603.96 292.82L603.96 217.82zM928.73 -44.68L993.69 -7.18L993.69 67.82L928.73 105.32L863.78 67.82L863.78 -7.18zM928.73 180.32L993.69 217.82L993.69 292.82L928.73 330.32L863.78 292.82L863.78 217.82zM1058.64 -44.68L1123.59 -7.18L1123.59 67.82L1058.64 105.32L993.69 67.82L993.69 -7.18zM1123.59 67.82L1188.55 105.32L1188.55 180.32L1123.59 217.82L1058.64 180.32L1058.64 105.32zM1058.64 180.32L1123.59 217.82L1123.59 292.82L1058.64 330.32L993.69 292.82L993.69 217.82zM1253.5 67.82L1318.45 105.32L1318.45 180.32L1253.5 217.82L1188.55 180.32L1188.55 105.32zM1188.55 180.32L1253.5 217.82L1253.5 292.82L1188.55 330.32L1123.59 292.82L1123.59 217.82zM1188.55 405.32L1253.5 442.82L1253.5 517.82L1188.55 555.32L1123.59 517.82L1123.59 442.82zM1383.41 292.82L1448.36 330.32L1448.36 405.32L1383.41 442.82L1318.46 405.32L1318.46 330.32zM1318.46 405.32L1383.41 442.82L1383.41 517.82L1318.46 555.32L1253.5 517.82L1253.5 442.82zM1448.36 -44.68L1513.32 -7.18L1513.32 67.82L1448.36 105.32L1383.41 67.82L1383.41 -7.18zM1448.36 180.32L1513.32 217.82L1513.32 292.82L1448.36 330.32L1383.41 292.82L1383.41 217.82zM1448.36 405.32L1513.32 442.82L1513.32 517.82L1448.36 555.32L1383.41 517.82L1383.41 442.82zM1448.36 630.32L1513.32 667.82L1513.32 742.82L1448.36 780.32L1383.41 742.82L1383.41 667.82z" stroke="rgba(164, 189, 213, 1)" stroke-width="2"></path><path d="M11.88 -44.68 a7.5 7.5 0 1 0 15 0 a7.5 7.5 0 1 0 -15 0zM76.83 -7.18 a7.5 7.5 0 1 0 15 0 a7.5 7.5 0 1 0 -15 0zM76.83 67.82 a7.5 7.5 0 1 0 15 0 a7.5 7.5 0 1 0 -15 0zM11.88 105.32 a7.5 7.5 0 1 0 15 0 a7.5 7.5 0 1 0 -15 0zM-53.07 67.82 a7.5 7.5 0 1 0 15 0 a7.5 7.5 0 1 0 -15 0zM-53.07 -7.18 a7.5 7.5 0 1 0 15 0 a7.5 7.5 0 1 0 -15 0zM11.88 180.32 a7.5 7.5 0 1 0 15 0 a7.5 7.5 0 1 0 -15 0zM76.83 217.82 a7.5 7.5 0 1 0 15 0 a7.5 7.5 0 1 0 -15 0zM76.83 292.82 a7.5 7.5 0 1 0 15 0 a7.5 7.5 0 1 0 -15 0zM11.88 330.32 a7.5 7.5 0 1 0 15 0 a7.5 7.5 0 1 0 -15 0zM-53.07 292.82 a7.5 7.5 0 1 0 15 0 a7.5 7.5 0 1 0 -15 0zM-53.07 217.82 a7.5 7.5 0 1 0 15 0 a7.5 7.5 0 1 0 -15 0zM11.88 405.32 a7.5 7.5 0 1 0 15 0 a7.5 7.5 0 1 0 -15 0zM76.83 442.82 a7.5 7.5 0 1 0 15 0 a7.5 7.5 0 1 0 -15 0zM76.83 517.82 a7.5 7.5 0 1 0 15 0 a7.5 7.5 0 1 0 -15 0zM11.88 555.32 a7.5 7.5 0 1 0 15 0 a7.5 7.5 0 1 0 -15 0zM-53.07 517.82 a7.5 7.5 0 1 0 15 0 a7.5 7.5 0 1 0 -15 0zM-53.07 442.82 a7.5 7.5 0 1 0 15 0 a7.5 7.5 0 1 0 -15 0zM206.74 292.82 a7.5 7.5 0 1 0 15 0 a7.5 7.5 0 1 0 -15 0zM271.69 330.32 a7.5 7.5 0 1 0 15 0 a7.5 7.5 0 1 0 -15 0zM271.69 405.32 a7.5 7.5 0 1 0 15 0 a7.5 7.5 0 1 0 -15 0zM206.74 442.82 a7.5 7.5 0 1 0 15 0 a7.5 7.5 0 1 0 -15 0zM141.79 405.32 a7.5 7.5 0 1 0 15 0 a7.5 7.5 0 1 0 -15 0zM141.79 330.32 a7.5 7.5 0 1 0 15 0 a7.5 7.5 0 1 0 -15 0zM141.79 630.32 a7.5 7.5 0 1 0 15 0 a7.5 7.5 0 1 0 -15 0zM206.74 667.82 a7.5 7.5 0 1 0 15 0 a7.5 7.5 0 1 0 -15 0zM206.74 742.82 a7.5 7.5 0 1 0 15 0 a7.5 7.5 0 1 0 -15 0zM141.79 780.32 a7.5 7.5 0 1 0 15 0 a7.5 7.5 0 1 0 -15 0zM76.83 742.82 a7.5 7.5 0 1 0 15 0 a7.5 7.5 0 1 0 -15 0zM76.83 667.82 a7.5 7.5 0 1 0 15 0 a7.5 7.5 0 1 0 -15 0zM271.69 -44.68 a7.5 7.5 0 1 0 15 0 a7.5 7.5 0 1 0 -15 0zM336.65 -7.18 a7.5 7.5 0 1 0 15 0 a7.5 7.5 0 1 0 -15 0zM336.65 67.82 a7.5 7.5 0 1 0 15 0 a7.5 7.5 0 1 0 -15 0zM271.69 105.32 a7.5 7.5 0 1 0 15 0 a7.5 7.5 0 1 0 -15 0zM206.74 67.82 a7.5 7.5 0 1 0 15 0 a7.5 7.5 0 1 0 -15 0zM206.74 -7.18 a7.5 7.5 0 1 0 15 0 a7.5 7.5 0 1 0 -15 0zM401.6 105.32 a7.5 7.5 0 1 0 15 0 a7.5 7.5 0 1 0 -15 0zM401.6 180.32 a7.5 7.5 0 1 0 15 0 a7.5 7.5 0 1 0 -15 0zM336.65 217.82 a7.5 7.5 0 1 0 15 0 a7.5 7.5 0 1 0 -15 0zM271.69 180.32 a7.5 7.5 0 1 0 15 0 a7.5 7.5 0 1 0 -15 0zM466.56 292.82 a7.5 7.5 0 1 0 15 0 a7.5 7.5 0 1 0 -15 0zM531.51 330.32 a7.5 7.5 0 1 0 15 0 a7.5 7.5 0 1 0 -15 0zM531.51 405.32 a7.5 7.5 0 1 0 15 0 a7.5 7.5 0 1 0 -15 0zM466.56 442.82 a7.5 7.5 0 1 0 15 0 a7.5 7.5 0 1 0 -15 0zM401.6 405.32 a7.5 7.5 0 1 0 15 0 a7.5 7.5 0 1 0 -15 0zM401.6 330.32 a7.5 7.5 0 1 0 15 0 a7.5 7.5 0 1 0 -15 0zM466.56 517.82 a7.5 7.5 0 1 0 15 0 a7.5 7.5 0 1 0 -15 0zM531.51 555.32 a7.5 7.5 0 1 0 15 0 a7.5 7.5 0 1 0 -15 0zM531.51 630.32 a7.5 7.5 0 1 0 15 0 a7.5 7.5 0 1 0 -15 0zM466.56 667.82 a7.5 7.5 0 1 0 15 0 a7.5 7.5 0 1 0 -15 0zM401.6 630.32 a7.5 7.5 0 1 0 15 0 a7.5 7.5 0 1 0 -15 0zM401.6 555.32 a7.5 7.5 0 1 0 15 0 a7.5 7.5 0 1 0 -15 0zM466.56 742.82 a7.5 7.5 0 1 0 15 0 a7.5 7.5 0 1 0 -15 0zM401.6 780.32 a7.5 7.5 0 1 0 15 0 a7.5 7.5 0 1 0 -15 0zM336.65 742.82 a7.5 7.5 0 1 0 15 0 a7.5 7.5 0 1 0 -15 0zM336.65 667.82 a7.5 7.5 0 1 0 15 0 a7.5 7.5 0 1 0 -15 0zM531.51 -44.68 a7.5 7.5 0 1 0 15 0 a7.5 7.5 0 1 0 -15 0zM596.46 -7.18 a7.5 7.5 0 1 0 15 0 a7.5 7.5 0 1 0 -15 0zM596.46 67.82 a7.5 7.5 0 1 0 15 0 a7.5 7.5 0 1 0 -15 0zM531.51 105.32 a7.5 7.5 0 1 0 15 0 a7.5 7.5 0 1 0 -15 0zM466.56 67.82 a7.5 7.5 0 1 0 15 0 a7.5 7.5 0 1 0 -15 0zM466.56 -7.18 a7.5 7.5 0 1 0 15 0 a7.5 7.5 0 1 0 -15 0zM661.42 105.32 a7.5 7.5 0 1 0 15 0 a7.5 7.5 0 1 0 -15 0zM661.42 180.32 a7.5 7.5 0 1 0 15 0 a7.5 7.5 0 1 0 -15 0zM596.46 217.82 a7.5 7.5 0 1 0 15 0 a7.5 7.5 0 1 0 -15 0zM531.51 180.32 a7.5 7.5 0 1 0 15 0 a7.5 7.5 0 1 0 -15 0zM596.46 292.82 a7.5 7.5 0 1 0 15 0 a7.5 7.5 0 1 0 -15 0zM661.42 330.32 a7.5 7.5 0 1 0 15 0 a7.5 7.5 0 1 0 -15 0zM661.42 405.32 a7.5 7.5 0 1 0 15 0 a7.5 7.5 0 1 0 -15 0zM596.46 442.82 a7.5 7.5 0 1 0 15 0 a7.5 7.5 0 1 0 -15 0zM596.46 517.82 a7.5 7.5 0 1 0 15 0 a7.5 7.5 0 1 0 -15 0zM596.46 667.82 a7.5 7.5 0 1 0 15 0 a7.5 7.5 0 1 0 -15 0zM596.46 742.82 a7.5 7.5 0 1 0 15 0 a7.5 7.5 0 1 0 -15 0zM531.51 780.32 a7.5 7.5 0 1 0 15 0 a7.5 7.5 0 1 0 -15 0zM726.37 67.82 a7.5 7.5 0 1 0 15 0 a7.5 7.5 0 1 0 -15 0zM791.33 105.32 a7.5 7.5 0 1 0 15 0 a7.5 7.5 0 1 0 -15 0zM791.33 180.32 a7.5 7.5 0 1 0 15 0 a7.5 7.5 0 1 0 -15 0zM726.37 217.82 a7.5 7.5 0 1 0 15 0 a7.5 7.5 0 1 0 -15 0zM726.37 292.82 a7.5 7.5 0 1 0 15 0 a7.5 7.5 0 1 0 -15 0zM921.23 -44.68 a7.5 7.5 0 1 0 15 0 a7.5 7.5 0 1 0 -15 0zM986.19 -7.18 a7.5 7.5 0 1 0 15 0 a7.5 7.5 0 1 0 -15 0zM986.19 67.82 a7.5 7.5 0 1 0 15 0 a7.5 7.5 0 1 0 -15 0zM921.23 105.32 a7.5 7.5 0 1 0 15 0 a7.5 7.5 0 1 0 -15 0zM856.28 67.82 a7.5 7.5 0 1 0 15 0 a7.5 7.5 0 1 0 -15 0zM856.28 -7.18 a7.5 7.5 0 1 0 15 0 a7.5 7.5 0 1 0 -15 0zM921.23 180.32 a7.5 7.5 0 1 0 15 0 a7.5 7.5 0 1 0 -15 0zM986.19 217.82 a7.5 7.5 0 1 0 15 0 a7.5 7.5 0 1 0 -15 0zM986.19 292.82 a7.5 7.5 0 1 0 15 0 a7.5 7.5 0 1 0 -15 0zM921.23 330.32 a7.5 7.5 0 1 0 15 0 a7.5 7.5 0 1 0 -15 0zM856.28 292.82 a7.5 7.5 0 1 0 15 0 a7.5 7.5 0 1 0 -15 0zM856.28 217.82 a7.5 7.5 0 1 0 15 0 a7.5 7.5 0 1 0 -15 0zM1051.14 -44.68 a7.5 7.5 0 1 0 15 0 a7.5 7.5 0 1 0 -15 0zM1116.09 -7.18 a7.5 7.5 0 1 0 15 0 a7.5 7.5 0 1 0 -15 0zM1116.09 67.82 a7.5 7.5 0 1 0 15 0 a7.5 7.5 0 1 0 -15 0zM1051.14 105.32 a7.5 7.5 0 1 0 15 0 a7.5 7.5 0 1 0 -15 0zM1181.05 105.32 a7.5 7.5 0 1 0 15 0 a7.5 7.5 0 1 0 -15 0zM1181.05 180.32 a7.5 7.5 0 1 0 15 0 a7.5 7.5 0 1 0 -15 0zM1116.09 217.82 a7.5 7.5 0 1 0 15 0 a7.5 7.5 0 1 0 -15 0zM1051.14 180.32 a7.5 7.5 0 1 0 15 0 a7.5 7.5 0 1 0 -15 0zM1116.09 292.82 a7.5 7.5 0 1 0 15 0 a7.5 7.5 0 1 0 -15 0zM1051.14 330.32 a7.5 7.5 0 1 0 15 0 a7.5 7.5 0 1 0 -15 0zM1246 67.82 a7.5 7.5 0 1 0 15 0 a7.5 7.5 0 1 0 -15 0zM1310.95 105.32 a7.5 7.5 0 1 0 15 0 a7.5 7.5 0 1 0 -15 0zM1310.95 180.32 a7.5 7.5 0 1 0 15 0 a7.5 7.5 0 1 0 -15 0zM1246 217.82 a7.5 7.5 0 1 0 15 0 a7.5 7.5 0 1 0 -15 0zM1246 292.82 a7.5 7.5 0 1 0 15 0 a7.5 7.5 0 1 0 -15 0zM1181.05 330.32 a7.5 7.5 0 1 0 15 0 a7.5 7.5 0 1 0 -15 0zM1181.05 405.32 a7.5 7.5 0 1 0 15 0 a7.5 7.5 0 1 0 -15 0zM1246 442.82 a7.5 7.5 0 1 0 15 0 a7.5 7.5 0 1 0 -15 0zM1246 517.82 a7.5 7.5 0 1 0 15 0 a7.5 7.5 0 1 0 -15 0zM1181.05 555.32 a7.5 7.5 0 1 0 15 0 a7.5 7.5 0 1 0 -15 0zM1116.09 517.82 a7.5 7.5 0 1 0 15 0 a7.5 7.5 0 1 0 -15 0zM1116.09 442.82 a7.5 7.5 0 1 0 15 0 a7.5 7.5 0 1 0 -15 0zM1375.91 292.82 a7.5 7.5 0 1 0 15 0 a7.5 7.5 0 1 0 -15 0zM1440.86 330.32 a7.5 7.5 0 1 0 15 0 a7.5 7.5 0 1 0 -15 0zM1440.86 405.32 a7.5 7.5 0 1 0 15 0 a7.5 7.5 0 1 0 -15 0zM1375.91 442.82 a7.5 7.5 0 1 0 15 0 a7.5 7.5 0 1 0 -15 0zM1310.96 405.32 a7.5 7.5 0 1 0 15 0 a7.5 7.5 0 1 0 -15 0zM1310.96 330.32 a7.5 7.5 0 1 0 15 0 a7.5 7.5 0 1 0 -15 0zM1375.91 517.82 a7.5 7.5 0 1 0 15 0 a7.5 7.5 0 1 0 -15 0zM1310.96 555.32 a7.5 7.5 0 1 0 15 0 a7.5 7.5 0 1 0 -15 0zM1440.86 -44.68 a7.5 7.5 0 1 0 15 0 a7.5 7.5 0 1 0 -15 0zM1505.82 -7.18 a7.5 7.5 0 1 0 15 0 a7.5 7.5 0 1 0 -15 0zM1505.82 67.82 a7.5 7.5 0 1 0 15 0 a7.5 7.5 0 1 0 -15 0zM1440.86 105.32 a7.5 7.5 0 1 0 15 0 a7.5 7.5 0 1 0 -15 0zM1375.91 67.82 a7.5 7.5 0 1 0 15 0 a7.5 7.5 0 1 0 -15 0zM1375.91 -7.18 a7.5 7.5 0 1 0 15 0 a7.5 7.5 0 1 0 -15 0zM1440.86 180.32 a7.5 7.5 0 1 0 15 0 a7.5 7.5 0 1 0 -15 0zM1505.82 217.82 a7.5 7.5 0 1 0 15 0 a7.5 7.5 0 1 0 -15 0zM1505.82 292.82 a7.5 7.5 0 1 0 15 0 a7.5 7.5 0 1 0 -15 0zM1375.91 217.82 a7.5 7.5 0 1 0 15 0 a7.5 7.5 0 1 0 -15 0zM1505.82 442.82 a7.5 7.5 0 1 0 15 0 a7.5 7.5 0 1 0 -15 0zM1505.82 517.82 a7.5 7.5 0 1 0 15 0 a7.5 7.5 0 1 0 -15 0zM1440.86 555.32 a7.5 7.5 0 1 0 15 0 a7.5 7.5 0 1 0 -15 0zM1440.86 630.32 a7.5 7.5 0 1 0 15 0 a7.5 7.5 0 1 0 -15 0zM1505.82 667.82 a7.5 7.5 0 1 0 15 0 a7.5 7.5 0 1 0 -15 0zM1505.82 742.82 a7.5 7.5 0 1 0 15 0 a7.5 7.5 0 1 0 -15 0zM1440.86 780.32 a7.5 7.5 0 1 0 15 0 a7.5 7.5 0 1 0 -15 0zM1375.91 742.82 a7.5 7.5 0 1 0 15 0 a7.5 7.5 0 1 0 -15 0zM1375.91 667.82 a7.5 7.5 0 1 0 15 0 a7.5 7.5 0 1 0 -15 0z" fill="rgba(164, 189, 213, 1)"></path><path d="M50.05 207.39L92.48 231.89L92.48 280.89L50.05 305.39L7.61 280.89L7.61 231.89zM7.61 280.89L50.05 305.39L50.05 354.39L7.61 378.89L-34.83 354.39L-34.83 305.39zM7.61 721.89L50.05 746.39L50.05 795.39L7.61 819.89L-34.83 795.39L-34.83 746.39zM92.48 427.89L134.92 452.39L134.92 501.39L92.48 525.89L50.05 501.39L50.05 452.39zM92.48 574.89L134.92 599.39L134.92 648.39L92.48 672.89L50.05 648.39L50.05 599.39zM134.92 648.39L177.36 672.89L177.36 721.89L134.92 746.39L92.48 721.89L92.48 672.89zM177.36 -13.11L219.79 11.39L219.79 60.39L177.36 84.89L134.92 60.39L134.92 11.39zM219.79 354.39L262.23 378.89L262.23 427.89L219.79 452.39L177.36 427.89L177.36 378.89zM219.79 648.39L262.23 672.89L262.23 721.89L219.79 746.39L177.36 721.89L177.36 672.89zM262.23 -13.11L304.67 11.39L304.67 60.39L262.23 84.89L219.79 60.39L219.79 11.39zM262.23 133.89L304.67 158.39L304.67 207.39L262.23 231.89L219.79 207.39L219.79 158.39zM304.67 501.39L347.1 525.89L347.1 574.89L304.67 599.39L262.23 574.89L262.23 525.89zM304.67 648.39L347.1 672.89L347.1 721.89L304.67 746.39L262.23 721.89L262.23 672.89zM262.23 721.89L304.67 746.39L304.67 795.39L262.23 819.89L219.79 795.39L219.79 746.39zM347.1 133.89L389.54 158.39L389.54 207.39L347.1 231.89L304.67 207.39L304.67 158.39zM347.1 280.89L389.54 305.39L389.54 354.39L347.1 378.89L304.67 354.39L304.67 305.39zM347.1 574.89L389.54 599.39L389.54 648.39L347.1 672.89L304.67 648.39L304.67 599.39zM389.54 648.39L431.97 672.89L431.97 721.89L389.54 746.39L347.1 721.89L347.1 672.89zM431.97 -13.11L474.41 11.39L474.41 60.39L431.97 84.89L389.54 60.39L389.54 11.39zM431.97 133.89L474.41 158.39L474.41 207.39L431.97 231.89L389.54 207.39L389.54 158.39zM474.41 207.39L516.85 231.89L516.85 280.89L474.41 305.39L431.97 280.89L431.97 231.89zM431.97 574.89L474.41 599.39L474.41 648.39L431.97 672.89L389.54 648.39L389.54 599.39zM431.97 721.89L474.41 746.39L474.41 795.39L431.97 819.89L389.54 795.39L389.54 746.39zM516.85 133.89L559.28 158.39L559.28 207.39L516.85 231.89L474.41 207.39L474.41 158.39zM559.28 354.39L601.72 378.89L601.72 427.89L559.28 452.39L516.85 427.89L516.85 378.89zM516.85 427.89L559.28 452.39L559.28 501.39L516.85 525.89L474.41 501.39L474.41 452.39zM644.16 60.39L686.59 84.89L686.59 133.89L644.16 158.39L601.72 133.89L601.72 84.89zM601.72 133.89L644.16 158.39L644.16 207.39L601.72 231.89L559.28 207.39L559.28 158.39zM644.16 648.39L686.59 672.89L686.59 721.89L644.16 746.39L601.72 721.89L601.72 672.89zM601.72 721.89L644.16 746.39L644.16 795.39L601.72 819.89L559.28 795.39L559.28 746.39zM729.03 60.39L771.47 84.89L771.47 133.89L729.03 158.39L686.59 133.89L686.59 84.89zM729.03 354.39L771.47 378.89L771.47 427.89L729.03 452.39L686.59 427.89L686.59 378.89zM771.47 -13.11L813.9 11.39L813.9 60.39L771.47 84.89L729.03 60.39L729.03 11.39zM813.9 501.39L856.34 525.89L856.34 574.89L813.9 599.39L771.47 574.89L771.47 525.89zM771.47 574.89L813.9 599.39L813.9 648.39L771.47 672.89L729.03 648.39L729.03 599.39zM856.34 -13.11L898.78 11.39L898.78 60.39L856.34 84.89L813.9 60.39L813.9 11.39zM898.78 60.39L941.21 84.89L941.21 133.89L898.78 158.39L856.34 133.89L856.34 84.89zM898.78 207.39L941.21 231.89L941.21 280.89L898.78 305.39L856.34 280.89L856.34 231.89zM856.34 280.89L898.78 305.39L898.78 354.39L856.34 378.89L813.9 354.39L813.9 305.39zM941.21 -13.11L983.65 11.39L983.65 60.39L941.21 84.89L898.78 60.39L898.78 11.39zM941.21 133.89L983.65 158.39L983.65 207.39L941.21 231.89L898.78 207.39L898.78 158.39zM941.21 280.89L983.65 305.39L983.65 354.39L941.21 378.89L898.78 354.39L898.78 305.39zM941.21 574.89L983.65 599.39L983.65 648.39L941.21 672.89L898.78 648.39L898.78 599.39zM1026.08 -13.11L1068.52 11.39L1068.52 60.39L1026.08 84.89L983.65 60.39L983.65 11.39zM1026.08 133.89L1068.52 158.39L1068.52 207.39L1026.08 231.89L983.65 207.39L983.65 158.39zM1026.08 574.89L1068.52 599.39L1068.52 648.39L1026.08 672.89L983.65 648.39L983.65 599.39zM1026.08 721.89L1068.52 746.39L1068.52 795.39L1026.08 819.89L983.65 795.39L983.65 746.39zM1110.96 133.89L1153.39 158.39L1153.39 207.39L1110.96 231.89L1068.52 207.39L1068.52 158.39zM1110.96 280.89L1153.39 305.39L1153.39 354.39L1110.96 378.89L1068.52 354.39L1068.52 305.39zM1153.39 501.39L1195.83 525.89L1195.83 574.89L1153.39 599.39L1110.96 574.89L1110.96 525.89zM1195.83 721.89L1238.27 746.39L1238.27 795.39L1195.83 819.89L1153.39 795.39L1153.39 746.39zM1280.7 -13.11L1323.14 11.39L1323.14 60.39L1280.7 84.89L1238.27 60.39L1238.27 11.39zM1280.7 133.89L1323.14 158.39L1323.14 207.39L1280.7 231.89L1238.27 207.39L1238.27 158.39zM1323.14 354.39L1365.58 378.89L1365.58 427.89L1323.14 452.39L1280.7 427.89L1280.7 378.89zM1280.7 574.89L1323.14 599.39L1323.14 648.39L1280.7 672.89L1238.27 648.39L1238.27 599.39z" stroke="rgba(6, 80, 156, 0.93)" stroke-width="2"></path></g><defs><mask id="SvgjsMask1161"><rect width="1440" height="700" fill="#ffffff"></rect></mask></defs></svg>