<svg xmlns="http://www.w3.org/2000/svg" version="1.1" xmlns:xlink="http://www.w3.org/1999/xlink" xmlns:svgjs="http://svgjs.dev/svgjs" width="1440" height="250" preserveAspectRatio="none" viewBox="0 0 1440 250"><g mask="url(&quot;#SvgjsMask1009&quot;)" fill="none"><path d="M42 250L292 0L529 0L279 250z" fill="url(&quot;#SvgjsLinearGradient1010&quot;)"></path><path d="M267.6 250L517.6 0L855.1 0L605.1 250z" fill="url(&quot;#SvgjsLinearGradient1010&quot;)"></path><path d="M523.2 250L773.2 0L851.2 0L601.2 250z" fill="url(&quot;#SvgjsLinearGradient1010&quot;)"></path><path d="M735.8000000000001 250L985.8000000000001 0L1203.3000000000002 0L953.3000000000001 250z" fill="url(&quot;#SvgjsLinearGradient1010&quot;)"></path><path d="M1403 250L1153 0L1061.5 0L1311.5 250z" fill="url(&quot;#SvgjsLinearGradient1011&quot;)"></path><path d="M1191.4 250L941.4000000000001 0L812.4000000000001 0L1062.4 250z" fill="url(&quot;#SvgjsLinearGradient1011&quot;)"></path><path d="M922.8 250L672.8 0L560.3 0L810.3 250z" fill="url(&quot;#SvgjsLinearGradient1011&quot;)"></path><path d="M706.1999999999999 250L456.19999999999993 0L301.69999999999993 0L551.6999999999999 250z" fill="url(&quot;#SvgjsLinearGradient1011&quot;)"></path><path d="M1249.111570459497 250L1440 59.11157045949699L1440 250z" fill="url(&quot;#SvgjsLinearGradient1010&quot;)"></path><path d="M0 250L190.888429540503 250L 0 59.11157045949699z" fill="url(&quot;#SvgjsLinearGradient1011&quot;)"></path></g><defs><mask id="SvgjsMask1009"><rect width="1440" height="250" fill="#ffffff"></rect></mask><linearGradient x1="0%" y1="100%" x2="100%" y2="0%" id="SvgjsLinearGradient1010"><stop stop-color="rgba(15, 70, 185, 0.2)" offset="0"></stop><stop stop-opacity="0" stop-color="rgba(15, 70, 185, 0.2)" offset="0.66"></stop></linearGradient><linearGradient x1="100%" y1="100%" x2="0%" y2="0%" id="SvgjsLinearGradient1011"><stop stop-color="rgba(15, 70, 185, 0.2)" offset="0"></stop><stop stop-opacity="0" stop-color="rgba(15, 70, 185, 0.2)" offset="0.66"></stop></linearGradient></defs></svg>